<?xml version="1.0" encoding="utf-8"?>
<!-- Generator: Adobe Illustrator 16.0.3, SVG Export Plug-In . SVG Version: 6.00 Build 0)  -->
<!DOCTYPE svg PUBLIC "-//W3C//DTD SVG 1.0//EN" "http://www.w3.org/TR/2001/REC-SVG-20010904/DTD/svg10.dtd">
<svg version="1.0" id="Capa_1" xmlns="http://www.w3.org/2000/svg" xmlns:xlink="http://www.w3.org/1999/xlink" x="0px" y="0px"
	 width="27.583px" height="57.063px" viewBox="0 0 27.583 57.063" enable-background="new 0 0 27.583 57.063" xml:space="preserve">
<g>
	<g>
		<line fill="none" stroke="#4D4D4D" stroke-width="2" stroke-miterlimit="10" x1="23.18" y1="13.714" x2="6.612" y2="13.714"/>
		<g>
			<polygon fill="#4D4D4D" points="13.239,5.534 14.603,6.999 7.379,13.712 14.603,20.427 13.239,21.892 4.443,13.712 			"/>
		</g>
	</g>
</g>
<ellipse fill="none" stroke="#4D4D4D" stroke-width="2" stroke-miterlimit="10" cx="13.812" cy="13.714" rx="11.76" ry="11.905"/>
<g>
	<path fill="#4D4D4D" d="M14.036,30.343c6.619,0,11.984,5.33,11.984,11.905s-5.365,11.906-11.984,11.906
		c-6.619,0-11.984-5.33-11.984-11.906S7.417,30.343,14.036,30.343z M13.313,50.341l1.522-1.554l-6.02-5.78h14.939v-2H8.688
		l6.191-5.651l-1.451-1.53l-8.795,8.028l0.097,0.103L4.659,42.03L13.313,50.341z"/>
	<ellipse fill="none" stroke="#4D4D4D" stroke-width="2" stroke-miterlimit="10" cx="14.036" cy="42.249" rx="11.984" ry="11.906"/>
</g>
</svg>
