<?xml version="1.0" encoding="utf-8"?>
<!-- Generator: Adobe Illustrator 16.0.3, SVG Export Plug-In . SVG Version: 6.00 Build 0)  -->
<!DOCTYPE svg PUBLIC "-//W3C//DTD SVG 1.0//EN" "http://www.w3.org/TR/2001/REC-SVG-20010904/DTD/svg10.dtd">
<svg version="1.0" id="Capa_1" xmlns="http://www.w3.org/2000/svg" xmlns:xlink="http://www.w3.org/1999/xlink" x="0px" y="0px"
	 width="27.583px" height="57.063px" viewBox="0 0 27.583 57.063" enable-background="new 0 0 27.583 57.063" xml:space="preserve">
<ellipse fill="none" stroke="#4D4D4D" stroke-width="2" stroke-miterlimit="10" cx="13.812" cy="13.714" rx="11.76" ry="11.905"/>
<ellipse fill="none" stroke="#4D4D4D" stroke-width="2" stroke-miterlimit="10" cx="13.792" cy="42.249" rx="11.76" ry="11.905"/>
<g>
	<rect x="12.864" y="12.229" fill="#4D4D4D" width="2" height="7.583"/>
	<ellipse fill="#4D4D4D" cx="13.865" cy="9.555" rx="1.323" ry="1.242"/>
</g>
<path fill="#4D4D4D" d="M13.792,30.343c-6.495,0-11.759,5.33-11.759,11.906c0,6.575,5.265,11.905,11.759,11.905
	s11.76-5.33,11.76-11.905C25.551,35.673,20.286,30.343,13.792,30.343z M14.864,48.478h-2v-7.583h2V48.478z M13.865,39.463
	c-0.731,0-1.323-0.556-1.323-1.243c0-0.686,0.592-1.242,1.323-1.242c0.73,0,1.323,0.556,1.323,1.242
	C15.188,38.907,14.595,39.463,13.865,39.463z"/>
</svg>
