<?xml version="1.0" encoding="utf-8"?>
<!-- Generator: Adobe Illustrator 16.0.3, SVG Export Plug-In . SVG Version: 6.00 Build 0)  -->
<!DOCTYPE svg PUBLIC "-//W3C//DTD SVG 1.0//EN" "http://www.w3.org/TR/2001/REC-SVG-20010904/DTD/svg10.dtd">
<svg version="1.0" id="Capa_1" xmlns="http://www.w3.org/2000/svg" xmlns:xlink="http://www.w3.org/1999/xlink" x="0px" y="0px"
	 width="27.583px" height="57.063px" viewBox="0 0 27.583 57.063" enable-background="new 0 0 27.583 57.063" xml:space="preserve">
<g>
	<g>
		<line fill="none" stroke="#4D4D4D" stroke-width="2" stroke-miterlimit="10" x1="21.011" y1="13.714" x2="4.443" y2="13.714"/>
		<g>
			<polygon fill="#4D4D4D" points="14.384,5.534 13.02,6.999 20.244,13.712 13.02,20.427 14.384,21.892 23.18,13.712 			"/>
		</g>
	</g>
</g>
<ellipse fill="none" stroke="#4D4D4D" stroke-width="2" stroke-miterlimit="10" cx="13.812" cy="13.714" rx="11.76" ry="11.905"/>
<g>
	<path fill="#4D4D4D" d="M14.145,29.343c-6.495,0-11.76,5.33-11.76,11.905s5.265,11.906,11.76,11.906
		c6.495,0,11.759-5.33,11.759-11.906S20.64,29.343,14.145,29.343z M14.854,49.341l-1.493-1.554l5.907-5.78H4.609v-2h14.784
		l-6.075-5.651l1.424-1.53l8.63,8.028l-0.095,0.103l0.07,0.073L14.854,49.341z"/>
	<ellipse fill="none" stroke="#4D4D4D" stroke-width="2" stroke-miterlimit="10" cx="14.145" cy="41.249" rx="11.76" ry="11.906"/>
</g>
</svg>
