<?xml version="1.0" encoding="utf-8"?>
<!-- Generator: Adobe Illustrator 16.0.3, SVG Export Plug-In . SVG Version: 6.00 Build 0)  -->
<!DOCTYPE svg PUBLIC "-//W3C//DTD SVG 1.0//EN" "http://www.w3.org/TR/2001/REC-SVG-20010904/DTD/svg10.dtd">
<svg version="1.0" id="Capa_1" xmlns="http://www.w3.org/2000/svg" xmlns:xlink="http://www.w3.org/1999/xlink" x="0px" y="0px"
	 width="1603.684px" height="50.4px" viewBox="0 0 1603.684 50.4" enable-background="new 0 0 1603.684 50.4" xml:space="preserve">
<rect fill="#4E4E4E" width="1603.684" height="50.4"/>
<rect y="0" fill="#CCCCCD" width="14.958" height="50.4"/>
<rect x="37.25" y="0" fill="#CCCCCD" width="14.958" height="50.4"/>
<rect x="72.833" y="0" fill="#CCCCCD" width="14.958" height="50.4"/>
<rect x="110.083" y="0" fill="#CCCCCD" width="14.958" height="50.4"/>
<rect x="146.333" y="0" fill="#CCCCCD" width="14.958" height="50.4"/>
<rect x="183.583" y="0" fill="#CCCCCD" width="14.958" height="50.4"/>
<rect x="219.167" y="0" fill="#CCCCCD" width="14.958" height="50.4"/>
<rect x="256.417" y="0" fill="#CCCCCD" width="14.958" height="50.4"/>
<rect x="295.333" y="0" fill="#CCCCCD" width="14.958" height="50.4"/>
<rect x="332.583" y="0" fill="#CCCCCD" width="14.958" height="50.4"/>
<rect x="368.167" y="0" fill="#CCCCCD" width="14.958" height="50.4"/>
<rect x="405.417" y="0" fill="#CCCCCD" width="14.958" height="50.4"/>
<rect x="441.667" y="0" fill="#CCCCCD" width="14.958" height="50.4"/>
<rect x="478.917" y="0" fill="#CCCCCD" width="14.958" height="50.4"/>
<rect x="514.5" y="0" fill="#CCCCCD" width="14.958" height="50.4"/>
<rect x="551.75" y="0" fill="#CCCCCD" width="14.958" height="50.4"/>
<rect x="590" y="0" fill="#CCCCCD" width="14.958" height="50.4"/>
<rect x="627.25" y="0" fill="#CCCCCD" width="14.958" height="50.4"/>
<rect x="662.833" y="0" fill="#CCCCCD" width="14.958" height="50.4"/>
<rect x="700.083" y="0" fill="#CCCCCD" width="14.958" height="50.4"/>
<rect x="736.333" y="0" fill="#CCCCCD" width="14.958" height="50.4"/>
<rect x="773.583" y="0" fill="#CCCCCD" width="14.958" height="50.4"/>
<rect x="809.167" y="0" fill="#CCCCCD" width="14.958" height="50.4"/>
<rect x="846.417" y="0" fill="#CCCCCD" width="14.958" height="50.4"/>
<rect x="885.334" y="0" fill="#CCCCCD" width="14.958" height="50.4"/>
<rect x="922.584" y="0" fill="#CCCCCD" width="14.958" height="50.4"/>
<rect x="958.167" y="0" fill="#CCCCCD" width="14.958" height="50.4"/>
<rect x="995.417" y="0" fill="#CCCCCD" width="14.958" height="50.4"/>
<rect x="1031.667" y="0" fill="#CCCCCD" width="14.958" height="50.4"/>
<rect x="1068.917" y="0" fill="#CCCCCD" width="14.958" height="50.4"/>
<rect x="1104.5" y="0" fill="#CCCCCD" width="14.959" height="50.4"/>
<rect x="1141.75" y="0" fill="#CCCCCD" width="14.959" height="50.4"/>
<rect x="1181.167" y="0" fill="#CCCCCD" width="14.958" height="50.4"/>
<rect x="1218.417" y="0" fill="#CCCCCD" width="14.958" height="50.4"/>
<rect x="1257.334" y="0" fill="#CCCCCD" width="14.958" height="50.4"/>
<rect x="1294.584" y="0" fill="#CCCCCD" width="14.958" height="50.4"/>
<rect x="1330.167" y="0" fill="#CCCCCD" width="14.958" height="50.4"/>
<rect x="1367.417" y="0" fill="#CCCCCD" width="14.958" height="50.4"/>
<rect x="1403.667" y="0" fill="#CCCCCD" width="14.958" height="50.4"/>
<rect x="1440.917" y="0" fill="#CCCCCD" width="14.958" height="50.4"/>
<rect x="1476.5" y="0" fill="#CCCCCD" width="14.959" height="50.4"/>
<rect x="1513.75" y="0" fill="#CCCCCD" width="14.959" height="50.4"/>
<rect x="1551.475" y="0" fill="#CCCCCD" width="14.959" height="50.4"/>
<rect x="1588.725" y="0" fill="#CCCCCD" width="14.959" height="50.4"/>
</svg>
