<?xml version="1.0" encoding="utf-8"?>
<!-- Generator: Adobe Illustrator 16.0.3, SVG Export Plug-In . SVG Version: 6.00 Build 0)  -->
<!DOCTYPE svg PUBLIC "-//W3C//DTD SVG 1.0//EN" "http://www.w3.org/TR/2001/REC-SVG-20010904/DTD/svg10.dtd">
<svg version="1.0" id="Capa_1" xmlns="http://www.w3.org/2000/svg" xmlns:xlink="http://www.w3.org/1999/xlink" x="0px" y="0px"
	 width="83px" height="29.5px" viewBox="0 0 83 29.5" enable-background="new 0 0 83 29.5" xml:space="preserve">
<g>
	<path fill="#333333" d="M27.483,17.694c-0.816-0.528-1.248-2.665-1.344-5.353l-0.024-1.512c0-1.56,0.072-3.264,0.24-4.872
		c-1.032-0.096-2.016-0.192-2.952-0.192c-1.176,0-2.256,0.144-3.072,0.504c-0.096,0.048-0.096,0.12-0.096,0.24v0.096
		c0,0.144,0,0.312-0.168,0.48c-0.12,0.072-0.264,0.12-0.384,0.12c-0.168,0-0.336-0.096-0.408-0.264
		C19.25,6.893,19.25,6.845,19.25,6.773c0-0.408,0.625-0.696,0.912-0.816c0.888-0.408,2.017-0.528,3.265-0.528
		c0.936,0,1.92,0.072,2.952,0.168c0.12-1.056,0.264-2.064,0.432-3.024c0.048-0.312,0.432-0.456,0.84-0.456h0.096
		c0.384,0.024,0.72,0.216,0.72,0.528v0.096c-0.168,1.008-0.312,1.992-0.432,3.024c1.512,0.168,3.024,0.336,4.416,0.336
		c1.776,0,3.36-0.264,4.464-1.08c0.144-0.096,0.192-0.192,0.192-0.288c0-0.096-0.072-0.216-0.072-0.336
		c0-0.072,0.048-0.168,0.144-0.288c0.096-0.096,0.192-0.12,0.312-0.12c0.216,0,0.432,0.144,0.432,0.36
		c0,0.096-0.048,0.192-0.12,0.312c-0.168,0.216-0.36,0.384-0.552,0.552c-1.176,0.96-2.88,1.224-4.776,1.224
		c-1.417,0-2.953-0.144-4.464-0.312c-0.192,1.992-0.288,4.056-0.288,5.88v1.056c0.096,2.473,0.384,4.248,0.912,4.393
		c1.2-0.336,2.376-4.993,2.976-6.409c0.048-0.072,0.12-0.12,0.168-0.12l0.096,0.024c0.048,0.024,0.096,0.096,0.096,0.168
		l-0.024,0.072c-0.768,1.776-1.8,6.288-3.264,6.624c-0.168,0.049-0.336,0.072-0.528,0.072
		C27.939,17.886,27.699,17.838,27.483,17.694z"/>
	<path fill="#333333" d="M35.212,16.95c-0.576-0.36-0.72-1.873-0.72-3.241c0-0.72,0.048-1.392,0.072-1.824
		c-0.456,1.464-1.056,3.24-1.729,3.336l-0.192,0.024c-1.104,0-1.392-1.296-1.392-2.376l0.024-0.6
		c0.12-1.272,0.792-3.433,2.232-3.433l0.312,0.024c0.384,0.072,0.768,0.384,0.984,0.72L34.9,9.125
		c0.072-0.264,0.408-0.432,0.744-0.432c0.36,0,0.72,0.192,0.72,0.6L36.34,9.389c-0.048,0.456-0.456,3.625-0.456,5.688
		c0,0.457,0.024,0.865,0.072,1.176c0.024,0.264,0.096,0.456,0.144,0.456c0.888-0.288,2.375-4.537,2.952-5.688
		c0.049-0.072,0.096-0.096,0.168-0.096c0.049,0,0.168,0.048,0.168,0.168c0,0,0,0.048-0.023,0.096
		c-0.624,1.272-2.064,5.521-3.168,5.856c-0.144,0.048-0.288,0.072-0.432,0.072C35.572,17.118,35.38,17.069,35.212,16.95z
		 M34.708,10.181c-0.072-0.24-0.192-0.456-0.36-0.624c-0.168-0.144-0.336-0.264-0.552-0.336c-0.504,0.288-1.152,3.625-1.152,5.064
		c0,0.264,0.024,0.48,0.072,0.576l0.072,0.024C33.436,14.886,34.444,10.973,34.708,10.181z"/>
	<path fill="#333333" d="M43.492,17.31c-0.505-0.336-0.648-1.32-0.648-2.544c0-2.4,0.6-5.688,0.6-6.697c0-0.168,0-0.264-0.048-0.288
		c-1.535,0.312-2.664,6-2.977,7.513c-0.096,0.455-0.144,0.816-0.695,0.816c-0.313,0-0.648-0.168-0.696-0.529
		c-0.048-0.456-0.096-1.536-0.096-2.616c0-1.056,0.048-2.136,0.12-2.592c0.048-0.384,0.408-0.576,0.768-0.576h0.072
		c0.336,0.024,0.672,0.24,0.672,0.624l-0.145,3.168c0.505-2.208,1.585-6.192,3.121-6.192h0.048c0.384,0.024,0.768,0.312,0.912,0.696
		c0.12,0.36,0.168,0.864,0.168,1.464c0,1.872-0.456,4.608-0.456,6.241c0,0.768,0.096,1.296,0.432,1.296l0.12-0.024
		c0.792-0.239,1.969-4.44,2.521-6.024c0.024-0.072,0.096-0.12,0.168-0.12c0,0,0.168,0,0.192,0.168l-0.024,0.072
		c-0.6,1.704-1.752,5.953-2.76,6.24c-0.12,0.049-0.313,0.049-0.528,0.049C44.02,17.454,43.66,17.405,43.492,17.31z"/>
	<path fill="#333333" d="M48.195,15.51c-0.816-0.288-1.009-1.896-1.009-3.24c0-0.888,0.072-1.656,0.12-1.872
		c0.024-0.384,0.408-0.552,0.792-0.552h0.072c0.36,0,0.72,0.192,0.72,0.48v0.024c0,0.456-0.191,1.992-0.191,3.216
		c0,0.912,0.096,1.656,0.479,1.656c0.889-0.024,1.633-2.832,2.089-4.176c0.023-0.072,0.119-0.12,0.168-0.12l0.096,0.024
		c0.048,0.024,0.072,0.096,0.072,0.144v0.072c-0.528,1.512-1.248,4.344-2.425,4.392l-0.359,0.023
		C48.603,15.581,48.363,15.558,48.195,15.51z M47.595,8.285c0-0.168,0.072-0.336,0.192-0.456c0.12-0.096,0.264-0.168,0.432-0.168
		s0.336,0.072,0.456,0.168c0.096,0.12,0.168,0.264,0.168,0.456c0,0.336-0.288,0.624-0.624,0.624S47.595,8.621,47.595,8.285z"/>
	<path fill="#333333" d="M55.776,16.792c-0.002-0.012-0.004-0.023-0.006-0.035c-0.002-0.018-0.006-0.034-0.008-0.051
		c-0.003,0.001-0.005,0.003-0.008,0.004c-0.048,0-0.12-0.192-0.144-0.456c-0.048-0.312-0.072-0.72-0.072-1.176
		c0-2.064,0.408-5.232,0.456-5.688l0.024-0.096c0-0.408-0.36-0.6-0.721-0.6c-0.336,0-0.672,0.168-0.744,0.432l-0.096,0.456
		c-0.216-0.336-0.6-0.648-0.984-0.72l-0.312-0.024c-1.44,0-2.112,2.161-2.232,3.433l-0.024,0.6c0,1.08,0.288,2.376,1.393,2.376
		l0.192-0.024c0.672-0.096,1.271-1.872,1.728-3.336c-0.023,0.432-0.071,1.104-0.071,1.824c0,1.368,0.144,2.88,0.72,3.241
		c0.168,0.119,0.36,0.168,0.552,0.168c0.134,0,0.266-0.025,0.398-0.066c-0.007-0.039-0.012-0.076-0.018-0.113
		C55.792,16.891,55.784,16.841,55.776,16.792z M52.442,14.886l-0.071-0.024c-0.048-0.096-0.072-0.312-0.072-0.576
		c0-1.44,0.648-4.776,1.152-5.064c0.216,0.072,0.384,0.192,0.552,0.336c0.168,0.168,0.288,0.384,0.36,0.624
		C54.099,10.973,53.091,14.886,52.442,14.886z"/>
	<path fill="#333333" d="M26.034,25.678l0.427-0.257c0.301,0.555,0.648,0.831,1.042,0.831c0.168,0,0.327-0.039,0.475-0.118
		c0.148-0.078,0.261-0.184,0.338-0.316c0.078-0.132,0.116-0.271,0.116-0.42c0-0.168-0.057-0.334-0.171-0.496
		c-0.157-0.223-0.444-0.492-0.861-0.807c-0.419-0.316-0.68-0.545-0.783-0.687c-0.178-0.237-0.267-0.493-0.267-0.769
		c0-0.219,0.052-0.418,0.157-0.599s0.252-0.321,0.442-0.426c0.19-0.104,0.397-0.155,0.621-0.155c0.237,0,0.458,0.059,0.665,0.176
		c0.207,0.117,0.425,0.334,0.655,0.648l-0.41,0.311c-0.189-0.25-0.35-0.416-0.484-0.496c-0.133-0.079-0.278-0.119-0.436-0.119
		c-0.203,0-0.369,0.062-0.497,0.185c-0.129,0.123-0.193,0.274-0.193,0.454c0,0.109,0.023,0.216,0.068,0.318s0.129,0.215,0.25,0.335
		c0.066,0.063,0.283,0.231,0.649,0.503c0.435,0.32,0.734,0.607,0.896,0.857s0.243,0.502,0.243,0.756
		c0,0.364-0.139,0.681-0.415,0.949c-0.277,0.27-0.614,0.404-1.01,0.404c-0.305,0-0.582-0.082-0.831-0.245
		S26.243,26.061,26.034,25.678z"/>
	<path fill="#333333" d="M32.094,21.587l2.345,5.027h-0.542l-0.791-1.654h-2.166l-0.783,1.654h-0.561l2.375-5.027H32.094z
		 M32.03,22.655l-0.861,1.819h1.719L32.03,22.655z"/>
	<path fill="#333333" d="M35.221,26.614v-5.027h0.109l3.346,3.854v-3.854h0.496v5.027H39.06l-3.319-3.807v3.807H35.221z"/>
	<path fill="#333333" d="M45.079,22.52l-0.396,0.304c-0.219-0.284-0.481-0.5-0.788-0.647c-0.307-0.146-0.644-0.22-1.011-0.22
		c-0.4,0-0.771,0.096-1.113,0.288s-0.607,0.451-0.795,0.776c-0.188,0.324-0.282,0.689-0.282,1.096c0,0.612,0.21,1.124,0.631,1.534
		c0.42,0.41,0.95,0.615,1.591,0.615c0.704,0,1.293-0.276,1.768-0.827l0.396,0.301c-0.251,0.318-0.563,0.565-0.938,0.74
		c-0.375,0.174-0.794,0.262-1.257,0.262c-0.879,0-1.572-0.293-2.081-0.879c-0.427-0.494-0.64-1.092-0.64-1.791
		c0-0.736,0.259-1.355,0.774-1.857c0.517-0.503,1.163-0.754,1.94-0.754c0.469,0,0.893,0.093,1.271,0.278
		C44.527,21.925,44.837,22.185,45.079,22.52z"/>
	<path fill="#333333" d="M46.081,21.587h0.502v2.108h2.561v-2.108h0.502v5.027h-0.502v-2.427h-2.561v2.427h-0.502V21.587z"/>
	<path fill="#333333" d="M50.872,21.587h2.881v0.492h-2.379v1.575h2.359v0.492h-2.359v1.976h2.359v0.492h-2.861V21.587z"/>
	<path fill="#333333" d="M54.427,22.071v-0.484h2.652l-2.101,4.535h1.995v0.492h-2.772l2.119-4.543H54.427z"/>
</g>
<g>
	<g>
		<path fill="#333333" d="M26.54,13.004c2.485,8.783-10.868,3.479-13.404,2.24c-3.985-1.949-7.754-3.53-12.242-3.677
			c-0.323-0.011-0.322,0.49,0,0.5c7.846,0.256,13.724,6.524,21.455,6.396c3.569-0.059,5.657-2.113,4.673-5.591
			C26.935,12.562,26.452,12.693,26.54,13.004L26.54,13.004z"/>
	</g>
</g>
<g>
	<g>
		<path fill="#333333" d="M54.588,15.792c0.368,2.931,2.765,3.57,5.5,3.122c7.685-1.258,13.959-6.732,22.065-5.697
			c0.319,0.041,0.315-0.459,0-0.5c-4.414-0.564-8.226,0.546-12.269,2.3c-2.13,0.923-14.011,7.039-14.797,0.775
			C55.048,15.476,54.548,15.472,54.588,15.792L54.588,15.792z"/>
	</g>
</g>
<g>
	<defs>
		<rect id="SVGID_1_" x="53.463" y="12.906" width="2.75" height="6.688"/>
	</defs>
	<clipPath id="SVGID_2_">
		<use xlink:href="#SVGID_1_"  overflow="visible"/>
	</clipPath>
	<g clip-path="url(#SVGID_2_)">
		<g>
			<path fill="#333333" d="M54.255,15.598c0.368,2.931,2.765,3.57,5.5,3.122c7.685-1.258,13.959-6.732,22.065-5.697
				c0.319,0.041,0.315-0.459,0-0.5c-4.414-0.564-8.226,0.546-12.269,2.3c-2.13,0.923-14.011,7.039-14.797,0.775
				C54.715,15.283,54.215,15.279,54.255,15.598L54.255,15.598z"/>
		</g>
	</g>
</g>
<path fill="none" stroke="#333333" stroke-width="0.25" stroke-miterlimit="10" d="M55.516,16.828
	c0.027,0.218,0.208,0.495,0.324,0.683c0.097,0.156,0.214,0.347,0.363,0.458"/>
<path fill="none" stroke="#333333" stroke-width="0.25" stroke-miterlimit="10" d="M55.52,16.375
	c-0.001,0.274,0.262,0.644,0.394,0.872c0.195,0.341,0.416,0.652,0.606,1.003"/>
<path fill="none" stroke="#333333" stroke-width="0.25" stroke-miterlimit="10" d="M56.173,17.703
	c0.017,0.168,0.31,0.409,0.426,0.509c0.146,0.125,0.331,0.265,0.48,0.397"/>
</svg>
