<?xml version="1.0" encoding="utf-8"?>
<!-- Generator: Adobe Illustrator 16.0.3, SVG Export Plug-In . SVG Version: 6.00 Build 0)  -->
<!DOCTYPE svg PUBLIC "-//W3C//DTD SVG 1.0//EN" "http://www.w3.org/TR/2001/REC-SVG-20010904/DTD/svg10.dtd">
<svg version="1.0" id="Capa_1" xmlns="http://www.w3.org/2000/svg" xmlns:xlink="http://www.w3.org/1999/xlink" x="0px" y="0px"
	 width="46.375px" height="29.5px" viewBox="0 0 46.375 29.5" enable-background="new 0 0 46.375 29.5" xml:space="preserve">
<g>
	<path fill="#333333" d="M9.296,17.257c-0.816-0.528-1.248-2.665-1.344-5.353l-0.024-1.512c0-1.56,0.072-3.264,0.24-4.872
		C7.136,5.423,6.152,5.327,5.216,5.327c-1.176,0-2.256,0.144-3.072,0.504c-0.096,0.048-0.096,0.12-0.096,0.24v0.096
		c0,0.144,0,0.312-0.168,0.48c-0.12,0.072-0.264,0.12-0.384,0.12c-0.168,0-0.336-0.096-0.408-0.264
		C1.063,6.456,1.063,6.407,1.063,6.335c0-0.408,0.625-0.696,0.912-0.816C2.863,5.111,3.992,4.991,5.24,4.991
		c0.936,0,1.92,0.072,2.952,0.168c0.12-1.056,0.264-2.064,0.432-3.024c0.048-0.312,0.432-0.456,0.84-0.456H9.56
		c0.384,0.024,0.72,0.216,0.72,0.528v0.096c-0.168,1.008-0.312,1.992-0.432,3.024c1.512,0.168,3.024,0.336,4.416,0.336
		c1.776,0,3.36-0.264,4.464-1.08c0.144-0.096,0.192-0.192,0.192-0.288c0-0.096-0.072-0.216-0.072-0.336
		c0-0.072,0.048-0.168,0.144-0.288c0.096-0.096,0.192-0.12,0.312-0.12c0.216,0,0.432,0.144,0.432,0.36
		c0,0.096-0.048,0.192-0.12,0.312c-0.168,0.216-0.36,0.384-0.552,0.552C17.889,5.735,16.185,6,14.289,6
		c-1.417,0-2.953-0.144-4.464-0.312c-0.192,1.992-0.288,4.056-0.288,5.88v1.056c0.096,2.473,0.384,4.248,0.912,4.393
		c1.2-0.336,2.376-4.993,2.976-6.409c0.048-0.072,0.12-0.12,0.168-0.12l0.096,0.024c0.048,0.024,0.096,0.096,0.096,0.168
		l-0.024,0.072c-0.768,1.776-1.8,6.288-3.264,6.624c-0.168,0.049-0.336,0.072-0.528,0.072C9.752,17.448,9.512,17.4,9.296,17.257z"/>
	<path fill="#333333" d="M17.024,16.513c-0.576-0.36-0.72-1.873-0.72-3.241c0-0.72,0.048-1.392,0.072-1.824
		c-0.456,1.464-1.056,3.24-1.729,3.336l-0.192,0.024c-1.104,0-1.392-1.296-1.392-2.376l0.024-0.6
		c0.12-1.272,0.792-3.433,2.232-3.433l0.312,0.024c0.384,0.072,0.768,0.384,0.984,0.72l0.096-0.456
		c0.072-0.264,0.408-0.432,0.744-0.432c0.36,0,0.72,0.192,0.72,0.6l-0.024,0.096c-0.048,0.456-0.456,3.625-0.456,5.688
		c0,0.457,0.024,0.865,0.072,1.176c0.024,0.264,0.096,0.456,0.144,0.456c0.888-0.288,2.375-4.537,2.952-5.688
		c0.049-0.072,0.096-0.096,0.168-0.096c0.049,0,0.168,0.048,0.168,0.168c0,0,0,0.048-0.023,0.096
		c-0.624,1.272-2.064,5.521-3.168,5.856c-0.144,0.048-0.288,0.072-0.432,0.072C17.384,16.681,17.192,16.632,17.024,16.513z
		 M16.52,9.744c-0.072-0.24-0.192-0.456-0.36-0.624c-0.168-0.144-0.336-0.264-0.552-0.336c-0.504,0.288-1.152,3.625-1.152,5.064
		c0,0.264,0.024,0.48,0.072,0.576l0.072,0.024C15.248,14.448,16.256,10.536,16.52,9.744z"/>
	<path fill="#333333" d="M25.305,16.872c-0.505-0.336-0.648-1.32-0.648-2.544c0-2.4,0.6-5.688,0.6-6.697
		c0-0.168,0-0.264-0.048-0.288c-1.535,0.312-2.664,6-2.977,7.513c-0.096,0.455-0.144,0.816-0.695,0.816
		c-0.313,0-0.648-0.168-0.696-0.529c-0.048-0.456-0.096-1.536-0.096-2.616c0-1.056,0.048-2.136,0.12-2.592
		c0.048-0.384,0.408-0.576,0.768-0.576h0.072c0.336,0.024,0.672,0.24,0.672,0.624l-0.145,3.168c0.505-2.208,1.585-6.192,3.121-6.192
		H25.4c0.384,0.024,0.768,0.312,0.912,0.696c0.12,0.36,0.168,0.864,0.168,1.464c0,1.872-0.456,4.608-0.456,6.241
		c0,0.768,0.096,1.296,0.432,1.296l0.12-0.024c0.792-0.239,1.969-4.44,2.521-6.024c0.024-0.072,0.096-0.12,0.168-0.12
		c0,0,0.168,0,0.192,0.168l-0.024,0.072c-0.6,1.704-1.752,5.953-2.76,6.24c-0.12,0.049-0.313,0.049-0.528,0.049
		C25.832,17.017,25.473,16.968,25.305,16.872z"/>
	<path fill="#333333" d="M30.008,15.072c-0.816-0.288-1.009-1.896-1.009-3.24c0-0.888,0.072-1.656,0.12-1.872
		c0.024-0.384,0.408-0.552,0.792-0.552h0.072c0.36,0,0.72,0.192,0.72,0.48v0.024c0,0.456-0.191,1.992-0.191,3.216
		c0,0.912,0.096,1.656,0.479,1.656c0.889-0.024,1.633-2.832,2.089-4.176c0.023-0.072,0.119-0.12,0.168-0.12l0.096,0.024
		c0.048,0.024,0.072,0.096,0.072,0.144v0.072c-0.528,1.512-1.248,4.344-2.425,4.392l-0.359,0.023
		C30.415,15.144,30.176,15.12,30.008,15.072z M29.407,7.848c0-0.168,0.072-0.336,0.192-0.456c0.12-0.096,0.264-0.168,0.432-0.168
		s0.336,0.072,0.456,0.168c0.096,0.12,0.168,0.264,0.168,0.456c0,0.336-0.288,0.624-0.624,0.624S29.407,8.184,29.407,7.848z"/>
	<path fill="#333333" d="M37.589,16.354c-0.002-0.012-0.004-0.023-0.006-0.035c-0.002-0.018-0.006-0.034-0.008-0.051
		c-0.003,0.001-0.005,0.003-0.008,0.004c-0.048,0-0.12-0.192-0.144-0.456c-0.048-0.312-0.072-0.72-0.072-1.176
		c0-2.064,0.408-5.232,0.456-5.688l0.024-0.096c0-0.408-0.36-0.6-0.721-0.6c-0.336,0-0.672,0.168-0.744,0.432l-0.096,0.456
		c-0.216-0.336-0.6-0.648-0.984-0.72l-0.312-0.024c-1.44,0-2.112,2.161-2.232,3.433l-0.024,0.6c0,1.08,0.288,2.376,1.393,2.376
		l0.192-0.024c0.672-0.096,1.271-1.872,1.728-3.336c-0.023,0.432-0.071,1.104-0.071,1.824c0,1.368,0.144,2.88,0.72,3.241
		c0.168,0.119,0.36,0.168,0.552,0.168c0.134,0,0.266-0.025,0.398-0.066c-0.007-0.039-0.012-0.076-0.018-0.113
		C37.604,16.453,37.597,16.403,37.589,16.354z M34.255,14.448l-0.071-0.024c-0.048-0.096-0.072-0.312-0.072-0.576
		c0-1.44,0.648-4.776,1.152-5.064c0.216,0.072,0.384,0.192,0.552,0.336c0.168,0.168,0.288,0.384,0.36,0.624
		C35.911,10.536,34.903,14.448,34.255,14.448z"/>
	<path fill="#333333" d="M7.04,24.399l0.427-0.257c0.301,0.555,0.648,0.831,1.042,0.831c0.168,0,0.327-0.039,0.475-0.118
		c0.148-0.078,0.261-0.184,0.338-0.316c0.078-0.132,0.116-0.271,0.116-0.42c0-0.168-0.057-0.334-0.171-0.496
		c-0.157-0.223-0.444-0.492-0.861-0.807c-0.419-0.316-0.68-0.545-0.783-0.687c-0.178-0.237-0.267-0.493-0.267-0.769
		c0-0.219,0.052-0.418,0.157-0.599s0.252-0.321,0.442-0.426c0.19-0.104,0.397-0.155,0.621-0.155c0.237,0,0.458,0.059,0.665,0.176
		c0.207,0.117,0.425,0.334,0.655,0.648l-0.41,0.311c-0.189-0.25-0.35-0.416-0.484-0.496c-0.133-0.079-0.278-0.119-0.436-0.119
		c-0.203,0-0.369,0.062-0.497,0.185c-0.129,0.123-0.193,0.274-0.193,0.454c0,0.109,0.023,0.216,0.068,0.318s0.129,0.215,0.25,0.335
		c0.066,0.063,0.283,0.231,0.649,0.503c0.435,0.32,0.734,0.607,0.896,0.857s0.243,0.502,0.243,0.756
		c0,0.364-0.139,0.681-0.415,0.949c-0.277,0.27-0.614,0.404-1.01,0.404c-0.305,0-0.582-0.082-0.831-0.245S7.25,24.782,7.04,24.399z"
		/>
	<path fill="#333333" d="M13.1,20.309l2.345,5.027h-0.542l-0.791-1.654h-2.166l-0.783,1.654h-0.561l2.375-5.027H13.1z
		 M13.037,21.377l-0.861,1.819h1.719L13.037,21.377z"/>
	<path fill="#333333" d="M16.228,25.336v-5.027h0.109l3.346,3.854v-3.854h0.496v5.027h-0.113l-3.319-3.807v3.807H16.228z"/>
	<path fill="#333333" d="M26.085,21.241l-0.396,0.304c-0.219-0.284-0.481-0.5-0.788-0.647c-0.307-0.146-0.644-0.22-1.011-0.22
		c-0.4,0-0.771,0.096-1.113,0.288s-0.607,0.451-0.795,0.776c-0.188,0.324-0.282,0.689-0.282,1.096c0,0.612,0.21,1.124,0.631,1.534
		c0.42,0.41,0.95,0.615,1.591,0.615c0.704,0,1.293-0.276,1.768-0.827l0.396,0.301c-0.251,0.318-0.563,0.565-0.938,0.74
		c-0.375,0.174-0.794,0.262-1.257,0.262c-0.879,0-1.572-0.293-2.081-0.879c-0.427-0.494-0.64-1.092-0.64-1.791
		c0-0.736,0.259-1.355,0.774-1.857c0.517-0.503,1.163-0.754,1.94-0.754c0.469,0,0.893,0.093,1.271,0.278
		C25.534,20.646,25.843,20.906,26.085,21.241z"/>
	<path fill="#333333" d="M27.087,20.309h0.502v2.108h2.561v-2.108h0.502v5.027H30.15v-2.427h-2.561v2.427h-0.502V20.309z"/>
	<path fill="#333333" d="M31.878,20.309h2.881v0.492H32.38v1.575h2.359v0.492H32.38v1.976h2.359v0.492h-2.861V20.309z"/>
	<path fill="#333333" d="M35.433,20.793v-0.484h2.652l-2.101,4.535h1.995v0.492h-2.772l2.119-4.543H35.433z"/>
</g>
</svg>
